<svg width="130" height="30" viewBox="0 0 130 30" fill="none" xmlns="http://www.w3.org/2000/svg">
<path d="M0 15C0 6.71573 6.71573 0 15 0H115C123.284 0 130 6.71573 130 15C130 23.2843 123.284 30 115 30H15C6.71573 30 0 23.2843 0 15Z" fill="#7DBAE5"/>
<path d="M43.496 10.276C43.704 10.302 43.925 10.3237 44.159 10.341C44.393 10.3583 44.614 10.367 44.822 10.367C44.9867 10.367 45.2163 10.367 45.511 10.367C45.8057 10.367 46.1307 10.367 46.486 10.367C46.8413 10.367 47.1923 10.367 47.539 10.367C47.8943 10.367 48.215 10.367 48.501 10.367C48.787 10.367 49.0037 10.367 49.151 10.367C49.3677 10.367 49.593 10.3583 49.827 10.341C50.061 10.3237 50.2863 10.302 50.503 10.276V11.784C50.2863 11.7667 50.061 11.758 49.827 11.758C49.593 11.7493 49.3677 11.745 49.151 11.745C49.0037 11.745 48.787 11.745 48.501 11.745C48.215 11.745 47.8943 11.745 47.539 11.745C47.1923 11.745 46.8413 11.745 46.486 11.745C46.1307 11.745 45.8057 11.745 45.511 11.745C45.2163 11.745 44.991 11.745 44.835 11.745C44.6183 11.745 44.3887 11.7493 44.146 11.758C43.9033 11.758 43.6867 11.7667 43.496 11.784V10.276ZM41.988 13.578C42.17 13.604 42.365 13.6257 42.573 13.643C42.7897 13.6517 42.9977 13.656 43.197 13.656C43.3097 13.656 43.535 13.656 43.873 13.656C44.211 13.656 44.6183 13.656 45.095 13.656C45.5717 13.656 46.083 13.656 46.629 13.656C47.1837 13.656 47.734 13.656 48.28 13.656C48.8347 13.656 49.3503 13.656 49.827 13.656C50.3123 13.656 50.7197 13.656 51.049 13.656C51.387 13.656 51.608 13.656 51.712 13.656C51.8507 13.656 52.0327 13.6517 52.258 13.643C52.4833 13.6343 52.6783 13.6127 52.843 13.578V15.099C52.687 15.0903 52.5007 15.086 52.284 15.086C52.076 15.0773 51.8853 15.073 51.712 15.073C51.608 15.073 51.387 15.073 51.049 15.073C50.7197 15.073 50.3123 15.073 49.827 15.073C49.3503 15.073 48.8347 15.073 48.28 15.073C47.734 15.073 47.1837 15.073 46.629 15.073C46.083 15.073 45.5717 15.073 45.095 15.073C44.6183 15.073 44.211 15.073 43.873 15.073C43.535 15.073 43.3097 15.073 43.197 15.073C43.0063 15.073 42.7983 15.0773 42.573 15.086C42.3563 15.086 42.1613 15.0947 41.988 15.112V13.578ZM48.488 14.384C48.488 15.216 48.4187 15.97 48.28 16.646C48.1413 17.322 47.9333 17.9287 47.656 18.466C47.5 18.7607 47.2877 19.0597 47.019 19.363C46.759 19.6663 46.46 19.9523 46.122 20.221C45.7927 20.4983 45.4373 20.7367 45.056 20.936L43.691 19.935C44.159 19.7443 44.6053 19.48 45.03 19.142C45.4633 18.7953 45.81 18.427 46.07 18.037C46.3993 17.5343 46.616 16.9753 46.72 16.36C46.824 15.7447 46.876 15.086 46.876 14.384H48.488ZM51.244 9.34C51.3567 9.48733 51.478 9.66933 51.608 9.886C51.738 10.1027 51.8637 10.3193 51.985 10.536C52.1063 10.7527 52.206 10.9477 52.284 11.121L51.335 11.524C51.205 11.2553 51.0447 10.952 50.854 10.614C50.6633 10.2673 50.4813 9.96833 50.308 9.717L51.244 9.34ZM52.752 8.768C52.8647 8.93267 52.986 9.12333 53.116 9.34C53.2547 9.55667 53.3847 9.77333 53.506 9.99C53.636 10.198 53.74 10.38 53.818 10.536L52.882 10.939C52.7433 10.6617 52.5743 10.3583 52.375 10.029C52.1843 9.691 52.0023 9.40067 51.829 9.158L52.752 8.768ZM55.235 14.085C55.3823 14.0937 55.5687 14.1067 55.794 14.124C56.028 14.1413 56.2707 14.1543 56.522 14.163C56.7733 14.163 57.0117 14.163 57.237 14.163C57.4363 14.163 57.692 14.163 58.004 14.163C58.316 14.163 58.6627 14.163 59.044 14.163C59.4253 14.163 59.8197 14.163 60.227 14.163C60.643 14.163 61.0547 14.163 61.462 14.163C61.878 14.163 62.268 14.163 62.632 14.163C62.996 14.163 63.3167 14.163 63.594 14.163C63.88 14.163 64.1053 14.163 64.27 14.163C64.582 14.163 64.8637 14.1543 65.115 14.137C65.375 14.111 65.5873 14.0937 65.752 14.085V15.918C65.6047 15.9093 65.388 15.8963 65.102 15.879C64.8247 15.8617 64.5473 15.853 64.27 15.853C64.114 15.853 63.893 15.853 63.607 15.853C63.321 15.853 62.9917 15.853 62.619 15.853C62.255 15.853 61.8693 15.853 61.462 15.853C61.0547 15.853 60.643 15.853 60.227 15.853C59.8197 15.853 59.4253 15.853 59.044 15.853C58.6627 15.853 58.316 15.853 58.004 15.853C57.692 15.853 57.4363 15.853 57.237 15.853C56.873 15.853 56.5047 15.8617 56.132 15.879C55.768 15.8877 55.469 15.9007 55.235 15.918V14.085ZM72.525 13.955C72.9237 14.189 73.357 14.4577 73.825 14.761C74.3017 15.0643 74.7783 15.3807 75.255 15.71C75.7317 16.0307 76.1823 16.347 76.607 16.659C77.0317 16.9623 77.3957 17.2397 77.699 17.491L76.594 18.804C76.308 18.5353 75.9527 18.232 75.528 17.894C75.112 17.556 74.6657 17.2137 74.189 16.867C73.7123 16.5117 73.24 16.1737 72.772 15.853C72.304 15.5323 71.8793 15.2507 71.498 15.008L72.525 13.955ZM78.596 11.693C78.5267 11.8057 78.453 11.94 78.375 12.096C78.3057 12.252 78.245 12.408 78.193 12.564C78.063 12.9713 77.8853 13.422 77.66 13.916C77.4433 14.41 77.1833 14.9127 76.88 15.424C76.5767 15.9353 76.23 16.4293 75.84 16.906C75.2333 17.66 74.4967 18.3793 73.63 19.064C72.7633 19.74 71.7103 20.312 70.471 20.78L69.132 19.61C70.0073 19.3327 70.7787 19.0077 71.446 18.635C72.1133 18.2537 72.6983 17.8463 73.201 17.413C73.7037 16.9797 74.1413 16.542 74.514 16.1C74.8173 15.7447 75.1033 15.3503 75.372 14.917C75.6407 14.475 75.8747 14.0373 76.074 13.604C76.2733 13.1707 76.412 12.7763 76.49 12.421H71.979L72.525 11.108H76.347C76.5377 11.108 76.7283 11.095 76.919 11.069C77.1097 11.043 77.27 11.004 77.4 10.952L78.596 11.693ZM74.267 9.73C74.1283 9.938 73.9897 10.1633 73.851 10.406C73.7123 10.6487 73.604 10.835 73.526 10.965C73.2487 11.4763 72.889 12.0223 72.447 12.603C72.005 13.1837 71.5023 13.7513 70.939 14.306C70.3843 14.8607 69.7863 15.3633 69.145 15.814L67.897 14.852C68.651 14.3753 69.2967 13.8727 69.834 13.344C70.3713 12.8153 70.822 12.2997 71.186 11.797C71.55 11.2943 71.836 10.8523 72.044 10.471C72.1393 10.3237 72.239 10.1287 72.343 9.886C72.4557 9.63467 72.538 9.405 72.59 9.197L74.267 9.73ZM83.549 14.072V18.817H82.184V15.372H80.585V14.072H83.549ZM83.549 18.206C83.8263 18.648 84.2163 18.973 84.719 19.181C85.2303 19.389 85.8327 19.5103 86.526 19.545C86.8987 19.5537 87.345 19.5623 87.865 19.571C88.385 19.571 88.931 19.5667 89.503 19.558C90.0837 19.5493 90.647 19.5363 91.193 19.519C91.739 19.493 92.2243 19.4627 92.649 19.428C92.597 19.532 92.5407 19.6707 92.48 19.844C92.4193 20.0173 92.363 20.1907 92.311 20.364C92.2677 20.546 92.233 20.7063 92.207 20.845C91.817 20.871 91.375 20.8883 90.881 20.897C90.387 20.9057 89.8757 20.91 89.347 20.91C88.827 20.9187 88.32 20.9187 87.826 20.91C87.332 20.91 86.8943 20.9013 86.513 20.884C85.6983 20.8493 85.0007 20.7193 84.42 20.494C83.848 20.2773 83.3497 19.9133 82.925 19.402C82.639 19.662 82.34 19.922 82.028 20.182C81.7247 20.4507 81.3953 20.728 81.04 21.014L80.338 19.558C80.6413 19.376 80.962 19.168 81.3 18.934C81.638 18.6913 81.963 18.4487 82.275 18.206H83.549ZM80.637 10.133L81.677 9.301C81.9457 9.47433 82.2187 9.678 82.496 9.912C82.782 10.146 83.0463 10.3843 83.289 10.627C83.5403 10.861 83.7397 11.082 83.887 11.29L82.782 12.2C82.652 12.0007 82.4657 11.7797 82.223 11.537C81.989 11.2857 81.7333 11.0387 81.456 10.796C81.1787 10.5447 80.9057 10.3237 80.637 10.133ZM85.486 10.289H91.206V13.89H85.486V12.746H89.854V11.433H85.486V10.289ZM87.306 8.963L88.944 9.184C88.8053 9.522 88.6623 9.85133 88.515 10.172C88.3677 10.4927 88.2377 10.7657 88.125 10.991L86.812 10.744C86.9073 10.484 87.0027 10.1893 87.098 9.86C87.1933 9.522 87.2627 9.223 87.306 8.963ZM84.81 10.289H86.162V18.7H84.81V10.289ZM85.59 14.865H91.713V18.7H85.59V17.543H90.348V16.022H85.59V14.865ZM100.943 18.622H104.336V19.961H100.943V18.622ZM93.663 11.355H98.486V12.72H93.663V11.355ZM100.319 10.51H104.96V20.78H103.569V11.862H101.658V20.884H100.319V10.51ZM98.135 11.355H99.487C99.487 11.355 99.487 11.3983 99.487 11.485C99.487 11.5717 99.487 11.667 99.487 11.771C99.487 11.875 99.487 11.9573 99.487 12.018C99.461 13.422 99.4307 14.6137 99.396 15.593C99.37 16.5723 99.3353 17.374 99.292 17.998C99.2487 18.622 99.1923 19.1117 99.123 19.467C99.0623 19.8137 98.98 20.0607 98.876 20.208C98.7373 20.4073 98.59 20.5503 98.434 20.637C98.2867 20.7237 98.109 20.7887 97.901 20.832C97.719 20.8667 97.485 20.884 97.199 20.884C96.9217 20.8927 96.6357 20.8883 96.341 20.871C96.3323 20.663 96.2933 20.4247 96.224 20.156C96.1547 19.896 96.0593 19.6663 95.938 19.467C96.2067 19.493 96.458 19.5103 96.692 19.519C96.926 19.519 97.0993 19.519 97.212 19.519C97.3073 19.5277 97.3897 19.5147 97.459 19.48C97.5283 19.4453 97.5933 19.3847 97.654 19.298C97.7233 19.194 97.784 18.9903 97.836 18.687C97.888 18.375 97.9313 17.9243 97.966 17.335C98.0093 16.7457 98.0397 15.9873 98.057 15.06C98.083 14.1327 98.109 13.0017 98.135 11.667V11.355ZM95.288 9.171H96.666C96.6573 10.4277 96.6357 11.6367 96.601 12.798C96.5663 13.9593 96.4797 15.0557 96.341 16.087C96.2023 17.1097 95.9727 18.0457 95.652 18.895C95.3313 19.7443 94.8893 20.4897 94.326 21.131C94.2567 21.0183 94.1613 20.897 94.04 20.767C93.9187 20.6457 93.793 20.5243 93.663 20.403C93.533 20.2817 93.4073 20.1863 93.286 20.117C93.702 19.6663 94.0357 19.1507 94.287 18.57C94.547 17.9807 94.7463 17.3393 94.885 16.646C95.0237 15.944 95.119 15.1987 95.171 14.41C95.2317 13.6127 95.2663 12.7763 95.275 11.901C95.2837 11.017 95.288 10.107 95.288 9.171Z" fill="white"/>
</svg>
