<svg width="198" height="56" viewBox="0 0 198 56" fill="none" xmlns="http://www.w3.org/2000/svg">
<rect width="198" height="56" rx="28" fill="#3986BB"/>
<path d="M52.86 22.84C53.4333 22.8933 54.0067 22.94 54.58 22.98C55.1533 23.0067 55.74 23.02 56.34 23.02C57.5533 23.02 58.76 22.9667 59.96 22.86C61.1733 22.7533 62.2933 22.5933 63.32 22.38V24.62C62.2667 24.78 61.14 24.9 59.94 24.98C58.74 25.06 57.54 25.1067 56.34 25.12C55.7533 25.12 55.1733 25.1067 54.6 25.08C54.04 25.0533 53.4667 25.02 52.88 24.98L52.86 22.84ZM60.3 19.42C60.2733 19.6067 60.2467 19.8133 60.22 20.04C60.2067 20.2533 60.1933 20.4667 60.18 20.68C60.1667 20.9067 60.1533 21.2067 60.14 21.58C60.1267 21.94 60.12 22.34 60.12 22.78C60.12 23.22 60.12 23.6667 60.12 24.12C60.12 24.9867 60.1333 25.8133 60.16 26.6C60.1867 27.3867 60.22 28.12 60.26 28.8C60.3 29.48 60.3333 30.1133 60.36 30.7C60.4 31.2867 60.42 31.8267 60.42 32.32C60.42 32.8 60.3533 33.2533 60.22 33.68C60.0867 34.1067 59.8733 34.4867 59.58 34.82C59.2867 35.14 58.8933 35.3867 58.4 35.56C57.92 35.7467 57.3267 35.84 56.62 35.84C55.2467 35.84 54.1733 35.5667 53.4 35.02C52.6267 34.4733 52.24 33.7 52.24 32.7C52.24 32.0467 52.4133 31.4733 52.76 30.98C53.12 30.4733 53.62 30.08 54.26 29.8C54.9133 29.52 55.6933 29.38 56.6 29.38C57.5067 29.38 58.34 29.48 59.1 29.68C59.86 29.88 60.5533 30.1467 61.18 30.48C61.8067 30.8 62.3733 31.1533 62.88 31.54C63.3867 31.9267 63.84 32.3 64.24 32.66L63.02 34.56C62.2733 33.8533 61.54 33.2467 60.82 32.74C60.1133 32.22 59.3933 31.82 58.66 31.54C57.94 31.26 57.1933 31.12 56.42 31.12C55.7933 31.12 55.2867 31.24 54.9 31.48C54.5133 31.72 54.32 32.0467 54.32 32.46C54.32 32.8867 54.5133 33.2067 54.9 33.42C55.2867 33.6333 55.7733 33.74 56.36 33.74C56.8133 33.74 57.1667 33.6667 57.42 33.52C57.6867 33.36 57.8733 33.14 57.98 32.86C58.0867 32.5667 58.14 32.22 58.14 31.82C58.14 31.4733 58.1267 31.0133 58.1 30.44C58.0733 29.8533 58.04 29.2133 58 28.52C57.9733 27.8133 57.9467 27.0867 57.92 26.34C57.8933 25.58 57.88 24.8467 57.88 24.14C57.88 23.3933 57.8733 22.7133 57.86 22.1C57.86 21.4867 57.86 21.0267 57.86 20.72C57.86 20.56 57.8467 20.3533 57.82 20.1C57.7933 19.8333 57.7667 19.6067 57.74 19.42H60.3ZM50.5 19.6C50.46 19.7333 50.4067 19.9067 50.34 20.12C50.2867 20.3333 50.2333 20.5467 50.18 20.76C50.14 20.9733 50.1067 21.14 50.08 21.26C50.0133 21.5667 49.9333 21.9667 49.84 22.46C49.76 22.94 49.6733 23.48 49.58 24.08C49.5 24.6667 49.42 25.2667 49.34 25.88C49.2733 26.4933 49.2133 27.08 49.16 27.64C49.12 28.2 49.1 28.6867 49.1 29.1C49.1 29.3667 49.1067 29.6533 49.12 29.96C49.1467 30.2533 49.18 30.54 49.22 30.82C49.3133 30.5667 49.4133 30.3067 49.52 30.04C49.64 29.7733 49.7533 29.5133 49.86 29.26C49.98 28.9933 50.0867 28.74 50.18 28.5L51.3 29.4C51.1267 29.92 50.94 30.48 50.74 31.08C50.54 31.6667 50.36 32.2267 50.2 32.76C50.0533 33.28 49.94 33.72 49.86 34.08C49.8333 34.2133 49.8067 34.3733 49.78 34.56C49.7667 34.7333 49.76 34.88 49.76 35C49.7733 35.0933 49.78 35.2133 49.78 35.36C49.78 35.5067 49.7867 35.6467 49.8 35.78L47.78 35.94C47.58 35.2333 47.4 34.3333 47.24 33.24C47.08 32.1467 47 30.92 47 29.56C47 28.8133 47.0333 28.0333 47.1 27.22C47.1667 26.4067 47.2467 25.62 47.34 24.86C47.4333 24.0867 47.5267 23.3867 47.62 22.76C47.7133 22.12 47.7867 21.6 47.84 21.2C47.88 20.9333 47.9133 20.64 47.94 20.32C47.98 19.9867 48.0067 19.68 48.02 19.4L50.5 19.6ZM77.22 20.96C77.4067 21.2267 77.6133 21.5533 77.84 21.94C78.08 22.3133 78.3133 22.7 78.54 23.1C78.7667 23.5 78.96 23.8533 79.12 24.16L77.5 24.88C77.3133 24.4667 77.12 24.08 76.92 23.72C76.72 23.3467 76.52 22.9867 76.32 22.64C76.12 22.2933 75.8933 21.9533 75.64 21.62L77.22 20.96ZM79.88 19.88C80.0667 20.1333 80.28 20.4533 80.52 20.84C80.7733 21.2133 81.0133 21.5933 81.24 21.98C81.48 22.3667 81.6733 22.7067 81.82 23L80.26 23.78C80.06 23.3667 79.8533 22.9867 79.64 22.64C79.44 22.28 79.2333 21.9333 79.02 21.6C78.8067 21.2533 78.5733 20.92 78.32 20.6L79.88 19.88ZM71.96 19.34C71.9067 19.74 71.86 20.16 71.82 20.6C71.78 21.0267 71.7467 21.4333 71.72 21.82C71.6933 22.3667 71.6667 23.04 71.64 23.84C71.6133 24.6267 71.5867 25.46 71.56 26.34C71.5333 27.22 71.5067 28.0867 71.48 28.94C71.4667 29.78 71.46 30.5267 71.46 31.18C71.46 31.86 71.5867 32.4067 71.84 32.82C72.1067 33.22 72.46 33.5067 72.9 33.68C73.34 33.8533 73.8333 33.94 74.38 33.94C75.2333 33.94 76.0067 33.8267 76.7 33.6C77.3933 33.3733 78.02 33.0733 78.58 32.7C79.14 32.3133 79.6467 31.8733 80.1 31.38C80.5533 30.8867 80.96 30.3733 81.32 29.84L82.94 31.82C82.6067 32.2867 82.18 32.7867 81.66 33.32C81.1533 33.84 80.5467 34.3333 79.84 34.8C79.1333 35.2533 78.32 35.62 77.4 35.9C76.4933 36.1933 75.4733 36.34 74.34 36.34C73.3 36.34 72.38 36.18 71.58 35.86C70.7933 35.54 70.18 35.0333 69.74 34.34C69.3133 33.6333 69.1 32.72 69.1 31.6C69.1 31.0533 69.1067 30.4267 69.12 29.72C69.1333 29 69.1533 28.26 69.18 27.5C69.2067 26.74 69.2267 25.9933 69.24 25.26C69.2533 24.5267 69.2667 23.86 69.28 23.26C69.2933 22.66 69.3 22.18 69.3 21.82C69.3 21.3667 69.28 20.9267 69.24 20.5C69.2133 20.0733 69.1533 19.68 69.06 19.32L71.96 19.34ZM98.82 19.38C98.7667 19.5533 98.7133 19.76 98.66 20C98.6067 20.2267 98.5533 20.46 98.5 20.7C98.46 20.9267 98.42 21.1133 98.38 21.26C98.18 22.14 97.9467 23.04 97.68 23.96C97.4133 24.88 97.1133 25.7933 96.78 26.7C96.4467 27.5933 96.08 28.4333 95.68 29.22C95.2933 29.9933 94.8667 30.6733 94.4 31.26C93.8267 32.02 93.28 32.6533 92.76 33.16C92.24 33.6667 91.72 34.0533 91.2 34.32C90.68 34.5733 90.1133 34.7 89.5 34.7C88.9667 34.7 88.46 34.5533 87.98 34.26C87.5133 33.9533 87.1333 33.5133 86.84 32.94C86.56 32.3533 86.42 31.6467 86.42 30.82C86.42 29.94 86.58 29.0667 86.9 28.2C87.22 27.32 87.6667 26.5067 88.24 25.76C88.8133 25.0133 89.48 24.3933 90.24 23.9C91.28 23.2067 92.3133 22.72 93.34 22.44C94.3667 22.16 95.4067 22.02 96.46 22.02C97.8067 22.02 99.0067 22.3067 100.06 22.88C101.113 23.4533 101.94 24.2533 102.54 25.28C103.14 26.3067 103.44 27.5 103.44 28.86C103.44 30.2467 103.133 31.4467 102.52 32.46C101.907 33.46 101.06 34.26 99.98 34.86C98.9 35.46 97.66 35.8667 96.26 36.08L94.9 34.02C95.9933 33.9267 96.9333 33.7267 97.72 33.42C98.5067 33.1133 99.1467 32.7267 99.64 32.26C100.147 31.78 100.52 31.24 100.76 30.64C101.013 30.04 101.14 29.4133 101.14 28.76C101.14 27.8267 100.933 27.0067 100.52 26.3C100.12 25.58 99.5533 25.02 98.82 24.62C98.0867 24.22 97.22 24.02 96.22 24.02C95.1933 24.02 94.26 24.1867 93.42 24.52C92.58 24.84 91.8 25.2667 91.08 25.8C90.5467 26.1733 90.0867 26.6333 89.7 27.18C89.3267 27.7267 89.0333 28.3 88.82 28.9C88.62 29.5 88.52 30.08 88.52 30.64C88.52 31.1733 88.6267 31.6 88.84 31.92C89.0667 32.2267 89.3667 32.38 89.74 32.38C90.02 32.38 90.3 32.3 90.58 32.14C90.8733 31.98 91.16 31.7667 91.44 31.5C91.72 31.22 91.9933 30.9 92.26 30.54C92.54 30.18 92.8067 29.8 93.06 29.4C93.4333 28.84 93.7867 28.2133 94.12 27.52C94.4533 26.8133 94.7533 26.0733 95.02 25.3C95.3 24.5267 95.5333 23.7667 95.72 23.02C95.92 22.2733 96.08 21.58 96.2 20.94C96.2533 20.6733 96.2867 20.3667 96.3 20.02C96.3267 19.66 96.34 19.3667 96.34 19.14L98.82 19.38ZM90.44 20.1C90.5067 20.42 90.5733 20.74 90.64 21.06C90.72 21.38 90.7933 21.6867 90.86 21.98C91.0067 22.5133 91.18 23.0933 91.38 23.72C91.5933 24.3467 91.8133 24.9667 92.04 25.58C92.2667 26.1933 92.5 26.7667 92.74 27.3C92.98 27.82 93.2133 28.2667 93.44 28.64C93.7867 29.1867 94.18 29.76 94.62 30.36C95.0733 30.9467 95.5333 31.46 96 31.9L94.18 33.36C93.7933 32.9067 93.4267 32.4667 93.08 32.04C92.7467 31.6 92.4133 31.1067 92.08 30.56C91.8 30.12 91.5133 29.6067 91.22 29.02C90.94 28.4333 90.66 27.8 90.38 27.12C90.1 26.4267 89.8267 25.72 89.56 25C89.3067 24.2667 89.0733 23.5467 88.86 22.84C88.7533 22.4933 88.64 22.16 88.52 21.84C88.4 21.5067 88.2533 21.1733 88.08 20.84L90.44 20.1ZM109.5 19.9C109.767 19.9267 110.053 19.9533 110.36 19.98C110.667 19.9933 110.947 20 111.2 20C111.413 20 111.74 19.9933 112.18 19.98C112.62 19.9667 113.113 19.9533 113.66 19.94C114.207 19.9267 114.753 19.9133 115.3 19.9C115.86 19.8867 116.36 19.8667 116.8 19.84C117.24 19.8133 117.573 19.7933 117.8 19.78C118.173 19.7533 118.467 19.7267 118.68 19.7C118.907 19.66 119.08 19.62 119.2 19.58L120.38 21.2C120.167 21.3333 119.947 21.4733 119.72 21.62C119.493 21.7667 119.273 21.92 119.06 22.08C118.793 22.2667 118.467 22.52 118.08 22.84C117.693 23.1467 117.28 23.4867 116.84 23.86C116.4 24.22 115.967 24.5733 115.54 24.92C115.113 25.2667 114.727 25.58 114.38 25.86C114.753 25.74 115.113 25.6667 115.46 25.64C115.82 25.6 116.18 25.58 116.54 25.58C117.66 25.58 118.66 25.7933 119.54 26.22C120.433 26.6467 121.14 27.2333 121.66 27.98C122.18 28.7133 122.44 29.56 122.44 30.52C122.44 31.5733 122.167 32.52 121.62 33.36C121.087 34.2 120.287 34.86 119.22 35.34C118.167 35.8333 116.86 36.08 115.3 36.08C114.38 36.08 113.56 35.9467 112.84 35.68C112.133 35.4267 111.573 35.0667 111.16 34.6C110.76 34.12 110.56 33.56 110.56 32.92C110.56 32.4 110.7 31.9133 110.98 31.46C111.273 31.0067 111.68 30.64 112.2 30.36C112.72 30.08 113.32 29.94 114 29.94C114.907 29.94 115.667 30.1267 116.28 30.5C116.907 30.86 117.387 31.3467 117.72 31.96C118.053 32.5733 118.233 33.2333 118.26 33.94L116.18 34.24C116.153 33.48 115.947 32.86 115.56 32.38C115.173 31.9 114.653 31.66 114 31.66C113.6 31.66 113.273 31.7667 113.02 31.98C112.78 32.1933 112.66 32.44 112.66 32.72C112.66 33.12 112.86 33.44 113.26 33.68C113.673 33.92 114.213 34.04 114.88 34.04C116 34.04 116.947 33.9 117.72 33.62C118.507 33.34 119.1 32.9333 119.5 32.4C119.9 31.8667 120.1 31.2267 120.1 30.48C120.1 29.8667 119.913 29.3267 119.54 28.86C119.167 28.38 118.66 28.0067 118.02 27.74C117.38 27.4733 116.66 27.34 115.86 27.34C115.073 27.34 114.353 27.44 113.7 27.64C113.047 27.8267 112.433 28.0933 111.86 28.44C111.287 28.7867 110.727 29.2133 110.18 29.72C109.647 30.2133 109.093 30.7667 108.52 31.38L106.9 29.7C107.273 29.4067 107.693 29.0667 108.16 28.68C108.627 28.2933 109.1 27.9 109.58 27.5C110.06 27.1 110.513 26.72 110.94 26.36C111.367 26 111.727 25.7 112.02 25.46C112.3 25.2333 112.633 24.96 113.02 24.64C113.407 24.32 113.807 23.9867 114.22 23.64C114.633 23.2933 115.027 22.9667 115.4 22.66C115.773 22.34 116.08 22.0733 116.32 21.86C116.12 21.86 115.847 21.8733 115.5 21.9C115.153 21.9133 114.773 21.9267 114.36 21.94C113.947 21.9533 113.533 21.9733 113.12 22C112.707 22.0133 112.32 22.0333 111.96 22.06C111.613 22.0733 111.333 22.0867 111.12 22.1C110.867 22.1133 110.6 22.1333 110.32 22.16C110.053 22.1733 109.807 22.2 109.58 22.24L109.5 19.9Z" fill="white"/>
<path d="M161.75 36.5L170.25 28L161.75 19.5" stroke="white" stroke-width="4" stroke-linecap="round" stroke-linejoin="round"/>
</svg>
