<svg width="88" height="30" viewBox="0 0 88 30" fill="none" xmlns="http://www.w3.org/2000/svg">
<path d="M0 15C0 6.71573 6.71573 0 15 0H73C81.2843 0 88 6.71573 88 15C88 23.2843 81.2843 30 73 30H15C6.71573 30 0 23.2843 0 15Z" fill="#939393"/>
<path d="M30.767 10.159H42.285V11.446H30.767V10.159ZM35.772 8.989H37.215V10.692H35.772V8.989ZM37.514 10.679H38.879V13.942C38.879 14.254 38.8443 14.501 38.775 14.683C38.7057 14.8563 38.5627 14.995 38.346 15.099C38.138 15.1943 37.8823 15.255 37.579 15.281C37.2757 15.2983 36.9203 15.307 36.513 15.307C36.487 15.1163 36.435 14.9083 36.357 14.683C36.2877 14.4577 36.214 14.254 36.136 14.072C36.3873 14.0807 36.6257 14.085 36.851 14.085C37.085 14.085 37.241 14.085 37.319 14.085C37.397 14.085 37.449 14.072 37.475 14.046C37.501 14.02 37.514 13.9767 37.514 13.916V10.679ZM34.862 10.51H36.162V11.459C36.162 11.797 36.136 12.1567 36.084 12.538C36.0407 12.9107 35.9453 13.2877 35.798 13.669C35.6593 14.0503 35.4427 14.423 35.148 14.787C34.862 15.151 34.472 15.4847 33.978 15.788C33.9087 15.6927 33.8133 15.5843 33.692 15.463C33.5793 15.3417 33.458 15.2247 33.328 15.112C33.198 14.9993 33.0767 14.9083 32.964 14.839C33.3973 14.5877 33.7397 14.319 33.991 14.033C34.2423 13.7383 34.4287 13.4437 34.55 13.149C34.68 12.8457 34.7623 12.5467 34.797 12.252C34.8403 11.9573 34.862 11.68 34.862 11.42V10.51ZM39.321 12.525L40.413 11.901C40.673 12.1437 40.9373 12.4123 41.206 12.707C41.4833 13.0017 41.739 13.2963 41.973 13.591C42.2157 13.877 42.4107 14.137 42.558 14.371L41.388 15.073C41.2667 14.839 41.089 14.5747 40.855 14.28C40.6297 13.9767 40.3827 13.6733 40.114 13.37C39.8453 13.058 39.581 12.7763 39.321 12.525ZM32.509 11.953L33.822 12.304C33.5533 12.8153 33.211 13.3137 32.795 13.799C32.379 14.2757 31.9413 14.67 31.482 14.982C31.352 14.852 31.1917 14.709 31.001 14.553C30.8103 14.397 30.6457 14.2713 30.507 14.176C30.793 13.994 31.066 13.7817 31.326 13.539C31.586 13.2963 31.82 13.0363 32.028 12.759C32.236 12.4817 32.3963 12.213 32.509 11.953ZM34.498 16.62C34.9487 17.2787 35.5597 17.8333 36.331 18.284C37.111 18.7347 38.0297 19.0857 39.087 19.337C40.1443 19.5797 41.3273 19.74 42.636 19.818C42.5407 19.9307 42.441 20.065 42.337 20.221C42.233 20.377 42.1333 20.533 42.038 20.689C41.9513 20.8537 41.8777 21.001 41.817 21.131C40.4563 21.0097 39.2343 20.7887 38.151 20.468C37.0677 20.1473 36.123 19.7053 35.317 19.142C34.511 18.5787 33.8263 17.8723 33.263 17.023L34.498 16.62ZM34.953 14.917L36.409 15.19C35.889 15.918 35.2477 16.581 34.485 17.179C33.7223 17.777 32.7863 18.3057 31.677 18.765C31.6163 18.6523 31.534 18.531 31.43 18.401C31.3347 18.271 31.2307 18.1453 31.118 18.024C31.0053 17.9027 30.9013 17.8073 30.806 17.738C31.8373 17.374 32.6953 16.945 33.38 16.451C34.0647 15.9483 34.589 15.437 34.953 14.917ZM34.823 15.879H39.503V16.984H33.835L34.823 15.879ZM39.113 15.879H39.412L39.659 15.827L40.569 16.425C40.153 17.1703 39.6157 17.816 38.957 18.362C38.307 18.8993 37.5617 19.3543 36.721 19.727C35.889 20.091 34.9963 20.39 34.043 20.624C33.0983 20.858 32.119 21.0357 31.105 21.157C31.0703 21.0443 31.014 20.9057 30.936 20.741C30.8667 20.585 30.7843 20.429 30.689 20.273C30.6023 20.1257 30.5157 20.0043 30.429 19.909C31.417 19.8223 32.3617 19.688 33.263 19.506C34.1643 19.324 34.9963 19.0857 35.759 18.791C36.5303 18.4877 37.202 18.115 37.774 17.673C38.3547 17.2223 38.801 16.698 39.113 16.1V15.879ZM43.806 9.613H55.22V10.861H43.806V9.613ZM48.863 10.146H50.332V15.333C50.332 15.853 50.2843 16.3557 50.189 16.841C50.0937 17.3177 49.9203 17.7727 49.669 18.206C49.4177 18.6393 49.071 19.0423 48.629 19.415C48.187 19.779 47.615 20.104 46.913 20.39C46.2197 20.6847 45.3747 20.936 44.378 21.144C44.326 21.0313 44.2523 20.897 44.157 20.741C44.0617 20.5937 43.9577 20.442 43.845 20.286C43.741 20.1387 43.637 20.013 43.533 19.909C44.495 19.753 45.2967 19.5623 45.938 19.337C46.5793 19.103 47.095 18.843 47.485 18.557C47.875 18.271 48.1697 17.959 48.369 17.621C48.5683 17.2743 48.6983 16.9103 48.759 16.529C48.8283 16.139 48.863 15.736 48.863 15.32V10.146ZM46.263 14.878V15.866H53.01V14.878H46.263ZM46.263 12.85V13.812H53.01V12.85H46.263ZM44.95 11.719H54.401V16.997H44.95V11.719ZM46.406 16.984C46.8567 17.582 47.381 18.0587 47.979 18.414C48.5857 18.7693 49.2703 19.0337 50.033 19.207C50.8043 19.3803 51.6623 19.4973 52.607 19.558C53.5517 19.61 54.5873 19.6403 55.714 19.649C55.5927 19.805 55.4713 20.013 55.35 20.273C55.2373 20.5417 55.1637 20.793 55.129 21.027C53.9677 20.9923 52.8843 20.923 51.879 20.819C50.8823 20.7237 49.968 20.5503 49.136 20.299C48.3127 20.0563 47.5673 19.7097 46.9 19.259C46.2413 18.7997 45.6737 18.2017 45.197 17.465L46.406 16.984Z" fill="white"/>
</svg>
