<svg width="194" height="87" viewBox="0 0 194 87" fill="none" xmlns="http://www.w3.org/2000/svg">
<g filter="url(#filter0_di_2231_6931)">
<path d="M0 0H146.5C168.315 0 186 17.6848 186 39.5C186 61.3152 168.315 79 146.5 79H0V0Z" fill="white"/>
</g>
<path d="M49 36V26H55V36M43 23L52 16L61 23V34C61 34.5304 60.7893 35.0391 60.4142 35.4142C60.0391 35.7893 59.5304 36 59 36H45C44.4696 36 43.9609 35.7893 43.5858 35.4142C43.2107 35.0391 43 34.5304 43 34V23Z" stroke="#639CC4" stroke-width="2.5" stroke-linecap="round" stroke-linejoin="round"/>
<path d="M30.755 46.662H35.624V47.706H30.755V46.662ZM35.264 46.662H36.398C36.398 46.662 36.398 46.692 36.398 46.752C36.398 46.806 36.398 46.872 36.398 46.95C36.398 47.022 36.395 47.082 36.389 47.13C36.365 47.808 36.338 48.393 36.308 48.885C36.278 49.371 36.242 49.776 36.2 50.1C36.164 50.424 36.119 50.682 36.065 50.874C36.011 51.066 35.945 51.21 35.867 51.306C35.747 51.45 35.621 51.552 35.489 51.612C35.363 51.672 35.213 51.714 35.039 51.738C34.889 51.762 34.691 51.774 34.445 51.774C34.199 51.78 33.941 51.777 33.671 51.765C33.665 51.603 33.629 51.417 33.563 51.207C33.497 51.003 33.416 50.826 33.32 50.676C33.572 50.694 33.806 50.706 34.022 50.712C34.238 50.718 34.4 50.721 34.508 50.721C34.592 50.721 34.661 50.715 34.715 50.703C34.769 50.685 34.823 50.649 34.877 50.595C34.949 50.517 35.006 50.346 35.048 50.082C35.096 49.812 35.138 49.416 35.174 48.894C35.21 48.366 35.24 47.685 35.264 46.851V46.662ZM31.763 43.467L32.933 43.809C32.711 44.331 32.444 44.835 32.132 45.321C31.826 45.807 31.493 46.254 31.133 46.662C30.779 47.07 30.41 47.424 30.026 47.724C29.96 47.646 29.87 47.553 29.756 47.445C29.642 47.331 29.525 47.22 29.405 47.112C29.291 47.004 29.189 46.917 29.099 46.851C29.471 46.599 29.825 46.299 30.161 45.951C30.503 45.597 30.812 45.21 31.088 44.79C31.364 44.364 31.589 43.923 31.763 43.467ZM35.192 43.449C35.336 43.737 35.51 44.031 35.714 44.331C35.918 44.631 36.14 44.925 36.38 45.213C36.626 45.495 36.875 45.762 37.127 46.014C37.385 46.266 37.637 46.485 37.883 46.671C37.787 46.743 37.679 46.839 37.559 46.959C37.445 47.073 37.334 47.19 37.226 47.31C37.124 47.43 37.037 47.541 36.965 47.643C36.713 47.409 36.458 47.148 36.2 46.86C35.942 46.566 35.687 46.257 35.435 45.933C35.189 45.603 34.955 45.264 34.733 44.916C34.511 44.562 34.31 44.214 34.13 43.872L35.192 43.449ZM32.357 46.968H33.536C33.494 47.472 33.425 47.964 33.329 48.444C33.233 48.924 33.074 49.377 32.852 49.803C32.636 50.229 32.321 50.619 31.907 50.973C31.499 51.321 30.959 51.618 30.287 51.864C30.245 51.762 30.185 51.651 30.107 51.531C30.029 51.411 29.945 51.291 29.855 51.171C29.765 51.057 29.675 50.958 29.585 50.874C30.191 50.682 30.671 50.445 31.025 50.163C31.379 49.875 31.646 49.563 31.826 49.227C32.006 48.885 32.129 48.522 32.195 48.138C32.267 47.754 32.321 47.364 32.357 46.968ZM42.833 46.392H46.748V47.409H42.833V46.392ZM42.293 43.98L43.58 44.34C43.568 44.424 43.49 44.478 43.346 44.502V46.617C43.346 46.977 43.328 47.379 43.292 47.823C43.262 48.261 43.202 48.717 43.112 49.191C43.022 49.659 42.887 50.118 42.707 50.568C42.533 51.012 42.299 51.42 42.005 51.792C41.957 51.714 41.882 51.627 41.78 51.531C41.684 51.441 41.582 51.354 41.474 51.27C41.366 51.186 41.267 51.126 41.177 51.09C41.429 50.76 41.63 50.406 41.78 50.028C41.93 49.644 42.041 49.254 42.113 48.858C42.185 48.462 42.233 48.072 42.257 47.688C42.281 47.298 42.293 46.938 42.293 46.608V43.98ZM45.56 43.449L46.469 44.295C46.121 44.433 45.743 44.565 45.335 44.691C44.927 44.811 44.513 44.916 44.093 45.006C43.673 45.096 43.262 45.171 42.86 45.231C42.836 45.105 42.788 44.955 42.716 44.781C42.65 44.607 42.581 44.463 42.509 44.349C42.881 44.277 43.253 44.196 43.625 44.106C43.997 44.01 44.351 43.905 44.687 43.791C45.023 43.677 45.314 43.563 45.56 43.449ZM44.516 46.707H45.587V51.801H44.516V46.707ZM38.405 45.213H41.762V46.23H38.405V45.213ZM39.638 43.35H40.673V51.801H39.638V43.35ZM39.593 45.906L40.223 46.122C40.157 46.488 40.07 46.863 39.962 47.247C39.86 47.631 39.74 48.009 39.602 48.381C39.47 48.753 39.326 49.101 39.17 49.425C39.014 49.743 38.849 50.019 38.675 50.253C38.627 50.097 38.552 49.923 38.45 49.731C38.348 49.539 38.252 49.377 38.162 49.245C38.324 49.047 38.477 48.816 38.621 48.552C38.765 48.288 38.897 48.009 39.017 47.715C39.143 47.415 39.254 47.112 39.35 46.806C39.452 46.494 39.533 46.194 39.593 45.906ZM40.592 46.698C40.652 46.758 40.742 46.866 40.862 47.022C40.988 47.172 41.12 47.334 41.258 47.508C41.396 47.682 41.519 47.844 41.627 47.994C41.741 48.144 41.822 48.252 41.87 48.318L41.258 49.173C41.204 49.035 41.126 48.876 41.024 48.696C40.922 48.516 40.814 48.333 40.7 48.147C40.586 47.955 40.475 47.775 40.367 47.607C40.265 47.439 40.178 47.298 40.106 47.184L40.592 46.698ZM51.257 43.989C51.317 44.097 51.389 44.256 51.473 44.466C51.563 44.67 51.653 44.895 51.743 45.141C51.839 45.381 51.929 45.615 52.013 45.843C52.097 46.065 52.16 46.251 52.202 46.401L51.068 46.797C51.032 46.653 50.972 46.473 50.888 46.257C50.81 46.035 50.726 45.807 50.636 45.573C50.546 45.333 50.456 45.105 50.366 44.889C50.276 44.673 50.198 44.496 50.132 44.358L51.257 43.989ZM55.37 44.709C55.316 44.817 55.268 44.934 55.226 45.06C55.19 45.186 55.16 45.303 55.136 45.411C55.052 45.735 54.938 46.098 54.794 46.5C54.656 46.902 54.488 47.304 54.29 47.706C54.098 48.102 53.876 48.465 53.624 48.795C53.312 49.209 52.961 49.587 52.571 49.929C52.187 50.265 51.785 50.559 51.365 50.811C50.945 51.063 50.519 51.27 50.087 51.432L49.079 50.424C49.493 50.304 49.913 50.136 50.339 49.92C50.771 49.704 51.185 49.443 51.581 49.137C51.983 48.831 52.334 48.486 52.634 48.102C52.862 47.814 53.069 47.463 53.255 47.049C53.447 46.635 53.609 46.194 53.741 45.726C53.879 45.252 53.972 44.784 54.02 44.322L55.37 44.709ZM48.755 44.547C48.821 44.685 48.902 44.865 48.998 45.087C49.1 45.309 49.202 45.543 49.304 45.789C49.406 46.035 49.499 46.272 49.583 46.5C49.673 46.722 49.745 46.911 49.799 47.067L48.638 47.49C48.602 47.37 48.551 47.223 48.485 47.049C48.425 46.875 48.353 46.686 48.269 46.482C48.191 46.278 48.11 46.077 48.026 45.879C47.942 45.681 47.864 45.501 47.792 45.339C47.72 45.177 47.657 45.045 47.603 44.943L48.755 44.547ZM56.828 46.833C56.936 46.839 57.074 46.848 57.242 46.86C57.41 46.866 57.584 46.872 57.764 46.878C57.95 46.884 58.121 46.887 58.277 46.887C58.427 46.887 58.613 46.887 58.835 46.887C59.057 46.887 59.297 46.887 59.555 46.887C59.819 46.887 60.089 46.887 60.365 46.887C60.647 46.887 60.926 46.887 61.202 46.887C61.478 46.887 61.739 46.887 61.985 46.887C62.231 46.887 62.45 46.887 62.642 46.887C62.84 46.887 62.996 46.887 63.11 46.887C63.32 46.887 63.518 46.881 63.704 46.869C63.89 46.851 64.043 46.839 64.163 46.833V48.246C64.061 48.24 63.908 48.231 63.704 48.219C63.5 48.207 63.302 48.201 63.11 48.201C62.996 48.201 62.84 48.201 62.642 48.201C62.444 48.201 62.222 48.201 61.976 48.201C61.73 48.201 61.469 48.201 61.193 48.201C60.923 48.201 60.647 48.201 60.365 48.201C60.083 48.201 59.81 48.201 59.546 48.201C59.288 48.201 59.048 48.201 58.826 48.201C58.61 48.201 58.427 48.201 58.277 48.201C58.019 48.201 57.755 48.207 57.485 48.219C57.215 48.225 56.996 48.234 56.828 48.246V46.833ZM69.527 50.802C69.545 50.712 69.56 50.61 69.572 50.496C69.59 50.376 69.599 50.256 69.599 50.136C69.599 50.07 69.599 49.938 69.599 49.74C69.599 49.542 69.599 49.302 69.599 49.02C69.599 48.738 69.599 48.435 69.599 48.111C69.599 47.781 69.599 47.448 69.599 47.112C69.599 46.776 69.599 46.461 69.599 46.167C69.599 45.867 69.599 45.606 69.599 45.384C69.599 45.156 69.599 44.991 69.599 44.889C69.599 44.685 69.587 44.508 69.563 44.358C69.545 44.208 69.533 44.127 69.527 44.115H70.868C70.862 44.127 70.85 44.211 70.832 44.367C70.814 44.517 70.805 44.694 70.805 44.898C70.805 45 70.805 45.153 70.805 45.357C70.805 45.555 70.805 45.786 70.805 46.05C70.805 46.308 70.805 46.584 70.805 46.878C70.805 47.172 70.805 47.463 70.805 47.751C70.805 48.033 70.805 48.303 70.805 48.561C70.805 48.813 70.805 49.029 70.805 49.209C70.805 49.389 70.805 49.521 70.805 49.605C71.051 49.497 71.306 49.35 71.57 49.164C71.834 48.978 72.092 48.762 72.344 48.516C72.602 48.264 72.83 47.994 73.028 47.706L73.721 48.696C73.475 49.02 73.175 49.338 72.821 49.65C72.473 49.962 72.113 50.247 71.741 50.505C71.369 50.763 71.012 50.979 70.67 51.153C70.574 51.207 70.496 51.255 70.436 51.297C70.376 51.345 70.325 51.387 70.283 51.423L69.527 50.802ZM65.36 50.667C65.756 50.391 66.08 50.058 66.332 49.668C66.584 49.278 66.77 48.894 66.89 48.516C66.956 48.318 67.004 48.075 67.034 47.787C67.07 47.493 67.097 47.181 67.115 46.851C67.133 46.515 67.142 46.185 67.142 45.861C67.148 45.531 67.151 45.228 67.151 44.952C67.151 44.772 67.142 44.619 67.124 44.493C67.112 44.361 67.094 44.238 67.07 44.124H68.393C68.387 44.136 68.378 44.187 68.366 44.277C68.36 44.361 68.351 44.463 68.339 44.583C68.333 44.697 68.33 44.817 68.33 44.943C68.33 45.207 68.327 45.516 68.321 45.87C68.315 46.218 68.303 46.575 68.285 46.941C68.267 47.307 68.24 47.655 68.204 47.985C68.168 48.309 68.12 48.585 68.06 48.813C67.922 49.323 67.715 49.797 67.439 50.235C67.169 50.667 66.842 51.054 66.458 51.396L65.36 50.667Z" fill="#639CC4"/>
<path d="M121 33.5C121 32.837 121.263 32.2011 121.732 31.7322C122.201 31.2634 122.837 31 123.5 31H137M121 33.5C121 34.163 121.263 34.7989 121.732 35.2678C122.201 35.7366 122.837 36 123.5 36H137V16H123.5C122.837 16 122.201 16.2634 121.732 16.7322C121.263 17.2011 121 17.837 121 18.5V33.5Z" stroke="#639CC4" stroke-width="2.5" stroke-linecap="round" stroke-linejoin="round"/>
<path d="M112.755 46.662H117.624V47.706H112.755V46.662ZM117.264 46.662H118.398C118.398 46.662 118.398 46.692 118.398 46.752C118.398 46.806 118.398 46.872 118.398 46.95C118.398 47.022 118.395 47.082 118.389 47.13C118.365 47.808 118.338 48.393 118.308 48.885C118.278 49.371 118.242 49.776 118.2 50.1C118.164 50.424 118.119 50.682 118.065 50.874C118.011 51.066 117.945 51.21 117.867 51.306C117.747 51.45 117.621 51.552 117.489 51.612C117.363 51.672 117.213 51.714 117.039 51.738C116.889 51.762 116.691 51.774 116.445 51.774C116.199 51.78 115.941 51.777 115.671 51.765C115.665 51.603 115.629 51.417 115.563 51.207C115.497 51.003 115.416 50.826 115.32 50.676C115.572 50.694 115.806 50.706 116.022 50.712C116.238 50.718 116.4 50.721 116.508 50.721C116.592 50.721 116.661 50.715 116.715 50.703C116.769 50.685 116.823 50.649 116.877 50.595C116.949 50.517 117.006 50.346 117.048 50.082C117.096 49.812 117.138 49.416 117.174 48.894C117.21 48.366 117.24 47.685 117.264 46.851V46.662ZM113.763 43.467L114.933 43.809C114.711 44.331 114.444 44.835 114.132 45.321C113.826 45.807 113.493 46.254 113.133 46.662C112.779 47.07 112.41 47.424 112.026 47.724C111.96 47.646 111.87 47.553 111.756 47.445C111.642 47.331 111.525 47.22 111.405 47.112C111.291 47.004 111.189 46.917 111.099 46.851C111.471 46.599 111.825 46.299 112.161 45.951C112.503 45.597 112.812 45.21 113.088 44.79C113.364 44.364 113.589 43.923 113.763 43.467ZM117.192 43.449C117.336 43.737 117.51 44.031 117.714 44.331C117.918 44.631 118.14 44.925 118.38 45.213C118.626 45.495 118.875 45.762 119.127 46.014C119.385 46.266 119.637 46.485 119.883 46.671C119.787 46.743 119.679 46.839 119.559 46.959C119.445 47.073 119.334 47.19 119.226 47.31C119.124 47.43 119.037 47.541 118.965 47.643C118.713 47.409 118.458 47.148 118.2 46.86C117.942 46.566 117.687 46.257 117.435 45.933C117.189 45.603 116.955 45.264 116.733 44.916C116.511 44.562 116.31 44.214 116.13 43.872L117.192 43.449ZM114.357 46.968H115.536C115.494 47.472 115.425 47.964 115.329 48.444C115.233 48.924 115.074 49.377 114.852 49.803C114.636 50.229 114.321 50.619 113.907 50.973C113.499 51.321 112.959 51.618 112.287 51.864C112.245 51.762 112.185 51.651 112.107 51.531C112.029 51.411 111.945 51.291 111.855 51.171C111.765 51.057 111.675 50.958 111.585 50.874C112.191 50.682 112.671 50.445 113.025 50.163C113.379 49.875 113.646 49.563 113.826 49.227C114.006 48.885 114.129 48.522 114.195 48.138C114.267 47.754 114.321 47.364 114.357 46.968ZM124.833 46.392H128.748V47.409H124.833V46.392ZM124.293 43.98L125.58 44.34C125.568 44.424 125.49 44.478 125.346 44.502V46.617C125.346 46.977 125.328 47.379 125.292 47.823C125.262 48.261 125.202 48.717 125.112 49.191C125.022 49.659 124.887 50.118 124.707 50.568C124.533 51.012 124.299 51.42 124.005 51.792C123.957 51.714 123.882 51.627 123.78 51.531C123.684 51.441 123.582 51.354 123.474 51.27C123.366 51.186 123.267 51.126 123.177 51.09C123.429 50.76 123.63 50.406 123.78 50.028C123.93 49.644 124.041 49.254 124.113 48.858C124.185 48.462 124.233 48.072 124.257 47.688C124.281 47.298 124.293 46.938 124.293 46.608V43.98ZM127.56 43.449L128.469 44.295C128.121 44.433 127.743 44.565 127.335 44.691C126.927 44.811 126.513 44.916 126.093 45.006C125.673 45.096 125.262 45.171 124.86 45.231C124.836 45.105 124.788 44.955 124.716 44.781C124.65 44.607 124.581 44.463 124.509 44.349C124.881 44.277 125.253 44.196 125.625 44.106C125.997 44.01 126.351 43.905 126.687 43.791C127.023 43.677 127.314 43.563 127.56 43.449ZM126.516 46.707H127.587V51.801H126.516V46.707ZM120.405 45.213H123.762V46.23H120.405V45.213ZM121.638 43.35H122.673V51.801H121.638V43.35ZM121.593 45.906L122.223 46.122C122.157 46.488 122.07 46.863 121.962 47.247C121.86 47.631 121.74 48.009 121.602 48.381C121.47 48.753 121.326 49.101 121.17 49.425C121.014 49.743 120.849 50.019 120.675 50.253C120.627 50.097 120.552 49.923 120.45 49.731C120.348 49.539 120.252 49.377 120.162 49.245C120.324 49.047 120.477 48.816 120.621 48.552C120.765 48.288 120.897 48.009 121.017 47.715C121.143 47.415 121.254 47.112 121.35 46.806C121.452 46.494 121.533 46.194 121.593 45.906ZM122.592 46.698C122.652 46.758 122.742 46.866 122.862 47.022C122.988 47.172 123.12 47.334 123.258 47.508C123.396 47.682 123.519 47.844 123.627 47.994C123.741 48.144 123.822 48.252 123.87 48.318L123.258 49.173C123.204 49.035 123.126 48.876 123.024 48.696C122.922 48.516 122.814 48.333 122.7 48.147C122.586 47.955 122.475 47.775 122.367 47.607C122.265 47.439 122.178 47.298 122.106 47.184L122.592 46.698ZM129.972 43.602H131.052V46.32C131.052 46.716 131.04 47.151 131.016 47.625C130.998 48.099 130.956 48.588 130.89 49.092C130.83 49.59 130.74 50.073 130.62 50.541C130.5 51.009 130.341 51.432 130.143 51.81C130.071 51.75 129.975 51.684 129.855 51.612C129.735 51.546 129.612 51.48 129.486 51.414C129.36 51.354 129.252 51.309 129.162 51.279C129.348 50.925 129.495 50.538 129.603 50.118C129.711 49.692 129.792 49.26 129.846 48.822C129.9 48.378 129.933 47.943 129.945 47.517C129.963 47.085 129.972 46.689 129.972 46.329V43.602ZM130.809 43.602H137.136V45.735H130.809V44.916H136.056V44.43H130.809V43.602ZM134.364 49.407H136.587V49.992H134.364V49.407ZM133.878 46.23H137.397V46.896H133.878V46.23ZM136.371 49.407H136.551L136.713 49.38L137.271 49.596C137.103 49.938 136.887 50.235 136.623 50.487C136.365 50.739 136.065 50.952 135.723 51.126C135.387 51.3 135.018 51.441 134.616 51.549C134.214 51.657 133.791 51.744 133.347 51.81C133.311 51.708 133.251 51.585 133.167 51.441C133.089 51.303 133.014 51.186 132.942 51.09C133.332 51.054 133.704 50.997 134.058 50.919C134.418 50.835 134.748 50.73 135.048 50.604C135.354 50.478 135.618 50.325 135.84 50.145C136.068 49.965 136.245 49.755 136.371 49.515V49.407ZM134.382 49.794C134.58 50.028 134.841 50.232 135.165 50.406C135.495 50.574 135.876 50.709 136.308 50.811C136.74 50.913 137.205 50.982 137.703 51.018C137.613 51.108 137.52 51.225 137.424 51.369C137.328 51.513 137.25 51.642 137.19 51.756C136.662 51.684 136.173 51.573 135.723 51.423C135.273 51.273 134.874 51.081 134.526 50.847C134.178 50.607 133.89 50.322 133.662 49.992L134.382 49.794ZM134.391 48.984L135.201 49.218C134.985 49.542 134.7 49.839 134.346 50.109C133.998 50.379 133.644 50.601 133.284 50.775C133.242 50.727 133.182 50.667 133.104 50.595C133.026 50.523 132.945 50.451 132.861 50.379C132.777 50.301 132.705 50.241 132.645 50.199C132.993 50.055 133.323 49.878 133.635 49.668C133.953 49.458 134.205 49.23 134.391 48.984ZM134.364 48.381V48.678H136.173V48.381H134.364ZM134.364 47.643V47.931H136.173V47.643H134.364ZM133.491 47.184H137.082V49.146H133.491V47.184ZM133.914 45.717L134.724 45.996C134.556 46.368 134.337 46.74 134.067 47.112C133.803 47.478 133.527 47.784 133.239 48.03C133.215 47.964 133.173 47.877 133.113 47.769C133.059 47.661 132.999 47.55 132.933 47.436C132.873 47.322 132.819 47.232 132.771 47.166C132.993 46.986 133.206 46.77 133.41 46.518C133.62 46.26 133.788 45.993 133.914 45.717ZM132.357 47.229L133.185 47.535C133.035 47.799 132.855 48.063 132.645 48.327C132.435 48.585 132.21 48.828 131.97 49.056C131.73 49.284 131.49 49.482 131.25 49.65C131.232 49.578 131.196 49.485 131.142 49.371C131.088 49.251 131.031 49.131 130.971 49.011C130.911 48.891 130.857 48.795 130.809 48.723C131.103 48.543 131.391 48.321 131.673 48.057C131.955 47.793 132.183 47.517 132.357 47.229ZM131.601 48.732L132.222 48.102L132.546 48.192V51.801H131.601V48.732ZM132.276 45.807L133.104 46.077C132.924 46.347 132.702 46.611 132.438 46.869C132.174 47.127 131.91 47.343 131.646 47.517C131.61 47.457 131.553 47.385 131.475 47.301C131.403 47.217 131.328 47.133 131.25 47.049C131.178 46.959 131.112 46.887 131.052 46.833C131.286 46.701 131.514 46.545 131.736 46.365C131.958 46.185 132.138 45.999 132.276 45.807ZM139.611 43.683H146.568V44.655H139.611V43.683ZM139.683 50.685H146.613V51.648H139.683V50.685ZM143.31 49.083H145.848V50.01H143.31V49.083ZM140.178 45.492H142.986V46.311H140.178V45.492ZM138.9 43.683H139.917V46.464C139.917 46.848 139.908 47.271 139.89 47.733C139.872 48.189 139.833 48.66 139.773 49.146C139.719 49.626 139.635 50.094 139.521 50.55C139.407 51.006 139.263 51.42 139.089 51.792C139.023 51.732 138.933 51.669 138.819 51.603C138.711 51.543 138.597 51.483 138.477 51.423C138.363 51.363 138.261 51.318 138.171 51.288C138.339 50.94 138.471 50.562 138.567 50.154C138.669 49.74 138.744 49.317 138.792 48.885C138.84 48.453 138.87 48.03 138.882 47.616C138.894 47.202 138.9 46.818 138.9 46.464V43.683ZM141.168 44.781H142.05V48.462H141.168V44.781ZM142.707 48.309H143.76V51.288H142.707V48.309ZM140.691 48.984H141.699V51.189H140.691V48.984ZM141.168 45.951L141.753 46.149C141.657 46.425 141.534 46.704 141.384 46.986C141.234 47.262 141.069 47.52 140.889 47.76C140.715 47.994 140.532 48.192 140.34 48.354C140.274 48.252 140.181 48.138 140.061 48.012C139.947 47.886 139.842 47.784 139.746 47.706C139.932 47.58 140.115 47.424 140.295 47.238C140.481 47.046 140.649 46.839 140.799 46.617C140.949 46.389 141.072 46.167 141.168 45.951ZM143.202 45.492H146.415V46.311H143.202V45.492ZM144.219 44.781H145.119V48.462H144.219V44.781ZM144.174 45.951L144.768 46.149C144.666 46.413 144.54 46.68 144.39 46.95C144.24 47.214 144.075 47.46 143.895 47.688C143.721 47.91 143.538 48.099 143.346 48.255C143.28 48.153 143.187 48.039 143.067 47.913C142.953 47.787 142.851 47.682 142.761 47.598C142.947 47.484 143.13 47.34 143.31 47.166C143.49 46.986 143.655 46.791 143.805 46.581C143.961 46.371 144.084 46.161 144.174 45.951ZM142.014 46.383C142.062 46.407 142.134 46.449 142.23 46.509C142.326 46.569 142.425 46.635 142.527 46.707C142.635 46.773 142.731 46.836 142.815 46.896C142.905 46.956 142.968 47.001 143.004 47.031L142.491 47.697C142.437 47.631 142.365 47.556 142.275 47.472C142.191 47.388 142.101 47.301 142.005 47.211C141.915 47.121 141.825 47.037 141.735 46.959C141.651 46.881 141.576 46.815 141.51 46.761L142.014 46.383ZM145.173 45.978C145.281 46.188 145.416 46.395 145.578 46.599C145.74 46.803 145.923 46.989 146.127 47.157C146.331 47.325 146.544 47.46 146.766 47.562C146.67 47.64 146.562 47.751 146.442 47.895C146.322 48.033 146.226 48.159 146.154 48.273C145.926 48.129 145.71 47.949 145.506 47.733C145.302 47.511 145.116 47.265 144.948 46.995C144.786 46.719 144.651 46.443 144.543 46.167L145.173 45.978Z" fill="#639CC4"/>
<defs>
<filter id="filter0_di_2231_6931" x="-4" y="-4" width="198" height="91" filterUnits="userSpaceOnUse" color-interpolation-filters="sRGB">
<feFlood flood-opacity="0" result="BackgroundImageFix"/>
<feColorMatrix in="SourceAlpha" type="matrix" values="0 0 0 0 0 0 0 0 0 0 0 0 0 0 0 0 0 0 127 0" result="hardAlpha"/>
<feOffset dx="4" dy="4"/>
<feGaussianBlur stdDeviation="2"/>
<feComposite in2="hardAlpha" operator="out"/>
<feColorMatrix type="matrix" values="0 0 0 0 0.16323 0 0 0 0 0.369601 0 0 0 0 0.514423 0 0 0 0.2 0"/>
<feBlend mode="normal" in2="BackgroundImageFix" result="effect1_dropShadow_2231_6931"/>
<feBlend mode="normal" in="SourceGraphic" in2="effect1_dropShadow_2231_6931" result="shape"/>
<feColorMatrix in="SourceAlpha" type="matrix" values="0 0 0 0 0 0 0 0 0 0 0 0 0 0 0 0 0 0 127 0" result="hardAlpha"/>
<feOffset dx="-7" dy="-7"/>
<feGaussianBlur stdDeviation="2"/>
<feComposite in2="hardAlpha" operator="arithmetic" k2="-1" k3="1"/>
<feColorMatrix type="matrix" values="0 0 0 0 0.48842 0 0 0 0 0.729711 0 0 0 0 0.899038 0 0 0 0.3 0"/>
<feBlend mode="normal" in2="shape" result="effect2_innerShadow_2231_6931"/>
</filter>
</defs>
</svg>
