<svg width="186" height="79" viewBox="0 0 186 79" fill="none" xmlns="http://www.w3.org/2000/svg">
<g filter="url(#filter0_i_2231_6931)">
<path d="M0 0H146.5C168.315 0 186 17.6848 186 39.5C186 61.3152 168.315 79 146.5 79H0V0Z" fill="white"/>
</g>
<path d="M47.1538 42.7691V29.6922H54.9999V42.7691M39.3076 25.7691L51.0768 16.6152L62.8461 25.7691V40.1537C62.8461 40.8473 62.5705 41.5126 62.08 42.0031C61.5896 42.4935 60.9243 42.7691 60.2307 42.7691H41.923C41.2294 42.7691 40.5641 42.4935 40.0736 42.0031C39.5832 41.5126 39.3076 40.8473 39.3076 40.1537V25.7691Z" stroke="#639CC4" stroke-width="2.5" stroke-linecap="round" stroke-linejoin="round"/>
<path d="M29.755 55.662H34.624V56.706H29.755V55.662ZM34.264 55.662H35.398C35.398 55.662 35.398 55.692 35.398 55.752C35.398 55.806 35.398 55.872 35.398 55.95C35.398 56.022 35.395 56.082 35.389 56.13C35.365 56.808 35.338 57.393 35.308 57.885C35.278 58.371 35.242 58.776 35.2 59.1C35.164 59.424 35.119 59.682 35.065 59.874C35.011 60.066 34.945 60.21 34.867 60.306C34.747 60.45 34.621 60.552 34.489 60.612C34.363 60.672 34.213 60.714 34.039 60.738C33.889 60.762 33.691 60.774 33.445 60.774C33.199 60.78 32.941 60.777 32.671 60.765C32.665 60.603 32.629 60.417 32.563 60.207C32.497 60.003 32.416 59.826 32.32 59.676C32.572 59.694 32.806 59.706 33.022 59.712C33.238 59.718 33.4 59.721 33.508 59.721C33.592 59.721 33.661 59.715 33.715 59.703C33.769 59.685 33.823 59.649 33.877 59.595C33.949 59.517 34.006 59.346 34.048 59.082C34.096 58.812 34.138 58.416 34.174 57.894C34.21 57.366 34.24 56.685 34.264 55.851V55.662ZM30.763 52.467L31.933 52.809C31.711 53.331 31.444 53.835 31.132 54.321C30.826 54.807 30.493 55.254 30.133 55.662C29.779 56.07 29.41 56.424 29.026 56.724C28.96 56.646 28.87 56.553 28.756 56.445C28.642 56.331 28.525 56.22 28.405 56.112C28.291 56.004 28.189 55.917 28.099 55.851C28.471 55.599 28.825 55.299 29.161 54.951C29.503 54.597 29.812 54.21 30.088 53.79C30.364 53.364 30.589 52.923 30.763 52.467ZM34.192 52.449C34.336 52.737 34.51 53.031 34.714 53.331C34.918 53.631 35.14 53.925 35.38 54.213C35.626 54.495 35.875 54.762 36.127 55.014C36.385 55.266 36.637 55.485 36.883 55.671C36.787 55.743 36.679 55.839 36.559 55.959C36.445 56.073 36.334 56.19 36.226 56.31C36.124 56.43 36.037 56.541 35.965 56.643C35.713 56.409 35.458 56.148 35.2 55.86C34.942 55.566 34.687 55.257 34.435 54.933C34.189 54.603 33.955 54.264 33.733 53.916C33.511 53.562 33.31 53.214 33.13 52.872L34.192 52.449ZM31.357 55.968H32.536C32.494 56.472 32.425 56.964 32.329 57.444C32.233 57.924 32.074 58.377 31.852 58.803C31.636 59.229 31.321 59.619 30.907 59.973C30.499 60.321 29.959 60.618 29.287 60.864C29.245 60.762 29.185 60.651 29.107 60.531C29.029 60.411 28.945 60.291 28.855 60.171C28.765 60.057 28.675 59.958 28.585 59.874C29.191 59.682 29.671 59.445 30.025 59.163C30.379 58.875 30.646 58.563 30.826 58.227C31.006 57.885 31.129 57.522 31.195 57.138C31.267 56.754 31.321 56.364 31.357 55.968ZM41.833 55.392H45.748V56.409H41.833V55.392ZM41.293 52.98L42.58 53.34C42.568 53.424 42.49 53.478 42.346 53.502V55.617C42.346 55.977 42.328 56.379 42.292 56.823C42.262 57.261 42.202 57.717 42.112 58.191C42.022 58.659 41.887 59.118 41.707 59.568C41.533 60.012 41.299 60.42 41.005 60.792C40.957 60.714 40.882 60.627 40.78 60.531C40.684 60.441 40.582 60.354 40.474 60.27C40.366 60.186 40.267 60.126 40.177 60.09C40.429 59.76 40.63 59.406 40.78 59.028C40.93 58.644 41.041 58.254 41.113 57.858C41.185 57.462 41.233 57.072 41.257 56.688C41.281 56.298 41.293 55.938 41.293 55.608V52.98ZM44.56 52.449L45.469 53.295C45.121 53.433 44.743 53.565 44.335 53.691C43.927 53.811 43.513 53.916 43.093 54.006C42.673 54.096 42.262 54.171 41.86 54.231C41.836 54.105 41.788 53.955 41.716 53.781C41.65 53.607 41.581 53.463 41.509 53.349C41.881 53.277 42.253 53.196 42.625 53.106C42.997 53.01 43.351 52.905 43.687 52.791C44.023 52.677 44.314 52.563 44.56 52.449ZM43.516 55.707H44.587V60.801H43.516V55.707ZM37.405 54.213H40.762V55.23H37.405V54.213ZM38.638 52.35H39.673V60.801H38.638V52.35ZM38.593 54.906L39.223 55.122C39.157 55.488 39.07 55.863 38.962 56.247C38.86 56.631 38.74 57.009 38.602 57.381C38.47 57.753 38.326 58.101 38.17 58.425C38.014 58.743 37.849 59.019 37.675 59.253C37.627 59.097 37.552 58.923 37.45 58.731C37.348 58.539 37.252 58.377 37.162 58.245C37.324 58.047 37.477 57.816 37.621 57.552C37.765 57.288 37.897 57.009 38.017 56.715C38.143 56.415 38.254 56.112 38.35 55.806C38.452 55.494 38.533 55.194 38.593 54.906ZM39.592 55.698C39.652 55.758 39.742 55.866 39.862 56.022C39.988 56.172 40.12 56.334 40.258 56.508C40.396 56.682 40.519 56.844 40.627 56.994C40.741 57.144 40.822 57.252 40.87 57.318L40.258 58.173C40.204 58.035 40.126 57.876 40.024 57.696C39.922 57.516 39.814 57.333 39.7 57.147C39.586 56.955 39.475 56.775 39.367 56.607C39.265 56.439 39.178 56.298 39.106 56.184L39.592 55.698ZM50.257 52.989C50.317 53.097 50.389 53.256 50.473 53.466C50.563 53.67 50.653 53.895 50.743 54.141C50.839 54.381 50.929 54.615 51.013 54.843C51.097 55.065 51.16 55.251 51.202 55.401L50.068 55.797C50.032 55.653 49.972 55.473 49.888 55.257C49.81 55.035 49.726 54.807 49.636 54.573C49.546 54.333 49.456 54.105 49.366 53.889C49.276 53.673 49.198 53.496 49.132 53.358L50.257 52.989ZM54.37 53.709C54.316 53.817 54.268 53.934 54.226 54.06C54.19 54.186 54.16 54.303 54.136 54.411C54.052 54.735 53.938 55.098 53.794 55.5C53.656 55.902 53.488 56.304 53.29 56.706C53.098 57.102 52.876 57.465 52.624 57.795C52.312 58.209 51.961 58.587 51.571 58.929C51.187 59.265 50.785 59.559 50.365 59.811C49.945 60.063 49.519 60.27 49.087 60.432L48.079 59.424C48.493 59.304 48.913 59.136 49.339 58.92C49.771 58.704 50.185 58.443 50.581 58.137C50.983 57.831 51.334 57.486 51.634 57.102C51.862 56.814 52.069 56.463 52.255 56.049C52.447 55.635 52.609 55.194 52.741 54.726C52.879 54.252 52.972 53.784 53.02 53.322L54.37 53.709ZM47.755 53.547C47.821 53.685 47.902 53.865 47.998 54.087C48.1 54.309 48.202 54.543 48.304 54.789C48.406 55.035 48.499 55.272 48.583 55.5C48.673 55.722 48.745 55.911 48.799 56.067L47.638 56.49C47.602 56.37 47.551 56.223 47.485 56.049C47.425 55.875 47.353 55.686 47.269 55.482C47.191 55.278 47.11 55.077 47.026 54.879C46.942 54.681 46.864 54.501 46.792 54.339C46.72 54.177 46.657 54.045 46.603 53.943L47.755 53.547ZM55.828 55.833C55.936 55.839 56.074 55.848 56.242 55.86C56.41 55.866 56.584 55.872 56.764 55.878C56.95 55.884 57.121 55.887 57.277 55.887C57.427 55.887 57.613 55.887 57.835 55.887C58.057 55.887 58.297 55.887 58.555 55.887C58.819 55.887 59.089 55.887 59.365 55.887C59.647 55.887 59.926 55.887 60.202 55.887C60.478 55.887 60.739 55.887 60.985 55.887C61.231 55.887 61.45 55.887 61.642 55.887C61.84 55.887 61.996 55.887 62.11 55.887C62.32 55.887 62.518 55.881 62.704 55.869C62.89 55.851 63.043 55.839 63.163 55.833V57.246C63.061 57.24 62.908 57.231 62.704 57.219C62.5 57.207 62.302 57.201 62.11 57.201C61.996 57.201 61.84 57.201 61.642 57.201C61.444 57.201 61.222 57.201 60.976 57.201C60.73 57.201 60.469 57.201 60.193 57.201C59.923 57.201 59.647 57.201 59.365 57.201C59.083 57.201 58.81 57.201 58.546 57.201C58.288 57.201 58.048 57.201 57.826 57.201C57.61 57.201 57.427 57.201 57.277 57.201C57.019 57.201 56.755 57.207 56.485 57.219C56.215 57.225 55.996 57.234 55.828 57.246V55.833ZM68.527 59.802C68.545 59.712 68.56 59.61 68.572 59.496C68.59 59.376 68.599 59.256 68.599 59.136C68.599 59.07 68.599 58.938 68.599 58.74C68.599 58.542 68.599 58.302 68.599 58.02C68.599 57.738 68.599 57.435 68.599 57.111C68.599 56.781 68.599 56.448 68.599 56.112C68.599 55.776 68.599 55.461 68.599 55.167C68.599 54.867 68.599 54.606 68.599 54.384C68.599 54.156 68.599 53.991 68.599 53.889C68.599 53.685 68.587 53.508 68.563 53.358C68.545 53.208 68.533 53.127 68.527 53.115H69.868C69.862 53.127 69.85 53.211 69.832 53.367C69.814 53.517 69.805 53.694 69.805 53.898C69.805 54 69.805 54.153 69.805 54.357C69.805 54.555 69.805 54.786 69.805 55.05C69.805 55.308 69.805 55.584 69.805 55.878C69.805 56.172 69.805 56.463 69.805 56.751C69.805 57.033 69.805 57.303 69.805 57.561C69.805 57.813 69.805 58.029 69.805 58.209C69.805 58.389 69.805 58.521 69.805 58.605C70.051 58.497 70.306 58.35 70.57 58.164C70.834 57.978 71.092 57.762 71.344 57.516C71.602 57.264 71.83 56.994 72.028 56.706L72.721 57.696C72.475 58.02 72.175 58.338 71.821 58.65C71.473 58.962 71.113 59.247 70.741 59.505C70.369 59.763 70.012 59.979 69.67 60.153C69.574 60.207 69.496 60.255 69.436 60.297C69.376 60.345 69.325 60.387 69.283 60.423L68.527 59.802ZM64.36 59.667C64.756 59.391 65.08 59.058 65.332 58.668C65.584 58.278 65.77 57.894 65.89 57.516C65.956 57.318 66.004 57.075 66.034 56.787C66.07 56.493 66.097 56.181 66.115 55.851C66.133 55.515 66.142 55.185 66.142 54.861C66.148 54.531 66.151 54.228 66.151 53.952C66.151 53.772 66.142 53.619 66.124 53.493C66.112 53.361 66.094 53.238 66.07 53.124H67.393C67.387 53.136 67.378 53.187 67.366 53.277C67.36 53.361 67.351 53.463 67.339 53.583C67.333 53.697 67.33 53.817 67.33 53.943C67.33 54.207 67.327 54.516 67.321 54.87C67.315 55.218 67.303 55.575 67.285 55.941C67.267 56.307 67.24 56.655 67.204 56.985C67.168 57.309 67.12 57.585 67.06 57.813C66.922 58.323 66.715 58.797 66.439 59.235C66.169 59.667 65.842 60.054 65.458 60.396L64.36 59.667Z" fill="#639CC4"/>
<path d="M116.231 39.4998C116.231 38.6328 116.575 37.8013 117.188 37.1882C117.801 36.5751 118.633 36.2306 119.5 36.2306H137.154M116.231 39.4998C116.231 40.3669 116.575 41.1984 117.188 41.8115C117.801 42.4246 118.633 42.7691 119.5 42.7691H137.154V16.6152H119.5C118.633 16.6152 117.801 16.9597 117.188 17.5728C116.575 18.1859 116.231 19.0174 116.231 19.8845V39.4998Z" stroke="#639CC4" stroke-width="2.5" stroke-linecap="round" stroke-linejoin="round"/>
<path d="M110.755 55.662H115.624V56.706H110.755V55.662ZM115.264 55.662H116.398C116.398 55.662 116.398 55.692 116.398 55.752C116.398 55.806 116.398 55.872 116.398 55.95C116.398 56.022 116.395 56.082 116.389 56.13C116.365 56.808 116.338 57.393 116.308 57.885C116.278 58.371 116.242 58.776 116.2 59.1C116.164 59.424 116.119 59.682 116.065 59.874C116.011 60.066 115.945 60.21 115.867 60.306C115.747 60.45 115.621 60.552 115.489 60.612C115.363 60.672 115.213 60.714 115.039 60.738C114.889 60.762 114.691 60.774 114.445 60.774C114.199 60.78 113.941 60.777 113.671 60.765C113.665 60.603 113.629 60.417 113.563 60.207C113.497 60.003 113.416 59.826 113.32 59.676C113.572 59.694 113.806 59.706 114.022 59.712C114.238 59.718 114.4 59.721 114.508 59.721C114.592 59.721 114.661 59.715 114.715 59.703C114.769 59.685 114.823 59.649 114.877 59.595C114.949 59.517 115.006 59.346 115.048 59.082C115.096 58.812 115.138 58.416 115.174 57.894C115.21 57.366 115.24 56.685 115.264 55.851V55.662ZM111.763 52.467L112.933 52.809C112.711 53.331 112.444 53.835 112.132 54.321C111.826 54.807 111.493 55.254 111.133 55.662C110.779 56.07 110.41 56.424 110.026 56.724C109.96 56.646 109.87 56.553 109.756 56.445C109.642 56.331 109.525 56.22 109.405 56.112C109.291 56.004 109.189 55.917 109.099 55.851C109.471 55.599 109.825 55.299 110.161 54.951C110.503 54.597 110.812 54.21 111.088 53.79C111.364 53.364 111.589 52.923 111.763 52.467ZM115.192 52.449C115.336 52.737 115.51 53.031 115.714 53.331C115.918 53.631 116.14 53.925 116.38 54.213C116.626 54.495 116.875 54.762 117.127 55.014C117.385 55.266 117.637 55.485 117.883 55.671C117.787 55.743 117.679 55.839 117.559 55.959C117.445 56.073 117.334 56.19 117.226 56.31C117.124 56.43 117.037 56.541 116.965 56.643C116.713 56.409 116.458 56.148 116.2 55.86C115.942 55.566 115.687 55.257 115.435 54.933C115.189 54.603 114.955 54.264 114.733 53.916C114.511 53.562 114.31 53.214 114.13 52.872L115.192 52.449ZM112.357 55.968H113.536C113.494 56.472 113.425 56.964 113.329 57.444C113.233 57.924 113.074 58.377 112.852 58.803C112.636 59.229 112.321 59.619 111.907 59.973C111.499 60.321 110.959 60.618 110.287 60.864C110.245 60.762 110.185 60.651 110.107 60.531C110.029 60.411 109.945 60.291 109.855 60.171C109.765 60.057 109.675 59.958 109.585 59.874C110.191 59.682 110.671 59.445 111.025 59.163C111.379 58.875 111.646 58.563 111.826 58.227C112.006 57.885 112.129 57.522 112.195 57.138C112.267 56.754 112.321 56.364 112.357 55.968ZM122.833 55.392H126.748V56.409H122.833V55.392ZM122.293 52.98L123.58 53.34C123.568 53.424 123.49 53.478 123.346 53.502V55.617C123.346 55.977 123.328 56.379 123.292 56.823C123.262 57.261 123.202 57.717 123.112 58.191C123.022 58.659 122.887 59.118 122.707 59.568C122.533 60.012 122.299 60.42 122.005 60.792C121.957 60.714 121.882 60.627 121.78 60.531C121.684 60.441 121.582 60.354 121.474 60.27C121.366 60.186 121.267 60.126 121.177 60.09C121.429 59.76 121.63 59.406 121.78 59.028C121.93 58.644 122.041 58.254 122.113 57.858C122.185 57.462 122.233 57.072 122.257 56.688C122.281 56.298 122.293 55.938 122.293 55.608V52.98ZM125.56 52.449L126.469 53.295C126.121 53.433 125.743 53.565 125.335 53.691C124.927 53.811 124.513 53.916 124.093 54.006C123.673 54.096 123.262 54.171 122.86 54.231C122.836 54.105 122.788 53.955 122.716 53.781C122.65 53.607 122.581 53.463 122.509 53.349C122.881 53.277 123.253 53.196 123.625 53.106C123.997 53.01 124.351 52.905 124.687 52.791C125.023 52.677 125.314 52.563 125.56 52.449ZM124.516 55.707H125.587V60.801H124.516V55.707ZM118.405 54.213H121.762V55.23H118.405V54.213ZM119.638 52.35H120.673V60.801H119.638V52.35ZM119.593 54.906L120.223 55.122C120.157 55.488 120.07 55.863 119.962 56.247C119.86 56.631 119.74 57.009 119.602 57.381C119.47 57.753 119.326 58.101 119.17 58.425C119.014 58.743 118.849 59.019 118.675 59.253C118.627 59.097 118.552 58.923 118.45 58.731C118.348 58.539 118.252 58.377 118.162 58.245C118.324 58.047 118.477 57.816 118.621 57.552C118.765 57.288 118.897 57.009 119.017 56.715C119.143 56.415 119.254 56.112 119.35 55.806C119.452 55.494 119.533 55.194 119.593 54.906ZM120.592 55.698C120.652 55.758 120.742 55.866 120.862 56.022C120.988 56.172 121.12 56.334 121.258 56.508C121.396 56.682 121.519 56.844 121.627 56.994C121.741 57.144 121.822 57.252 121.87 57.318L121.258 58.173C121.204 58.035 121.126 57.876 121.024 57.696C120.922 57.516 120.814 57.333 120.7 57.147C120.586 56.955 120.475 56.775 120.367 56.607C120.265 56.439 120.178 56.298 120.106 56.184L120.592 55.698ZM127.972 52.602H129.052V55.32C129.052 55.716 129.04 56.151 129.016 56.625C128.998 57.099 128.956 57.588 128.89 58.092C128.83 58.59 128.74 59.073 128.62 59.541C128.5 60.009 128.341 60.432 128.143 60.81C128.071 60.75 127.975 60.684 127.855 60.612C127.735 60.546 127.612 60.48 127.486 60.414C127.36 60.354 127.252 60.309 127.162 60.279C127.348 59.925 127.495 59.538 127.603 59.118C127.711 58.692 127.792 58.26 127.846 57.822C127.9 57.378 127.933 56.943 127.945 56.517C127.963 56.085 127.972 55.689 127.972 55.329V52.602ZM128.809 52.602H135.136V54.735H128.809V53.916H134.056V53.43H128.809V52.602ZM132.364 58.407H134.587V58.992H132.364V58.407ZM131.878 55.23H135.397V55.896H131.878V55.23ZM134.371 58.407H134.551L134.713 58.38L135.271 58.596C135.103 58.938 134.887 59.235 134.623 59.487C134.365 59.739 134.065 59.952 133.723 60.126C133.387 60.3 133.018 60.441 132.616 60.549C132.214 60.657 131.791 60.744 131.347 60.81C131.311 60.708 131.251 60.585 131.167 60.441C131.089 60.303 131.014 60.186 130.942 60.09C131.332 60.054 131.704 59.997 132.058 59.919C132.418 59.835 132.748 59.73 133.048 59.604C133.354 59.478 133.618 59.325 133.84 59.145C134.068 58.965 134.245 58.755 134.371 58.515V58.407ZM132.382 58.794C132.58 59.028 132.841 59.232 133.165 59.406C133.495 59.574 133.876 59.709 134.308 59.811C134.74 59.913 135.205 59.982 135.703 60.018C135.613 60.108 135.52 60.225 135.424 60.369C135.328 60.513 135.25 60.642 135.19 60.756C134.662 60.684 134.173 60.573 133.723 60.423C133.273 60.273 132.874 60.081 132.526 59.847C132.178 59.607 131.89 59.322 131.662 58.992L132.382 58.794ZM132.391 57.984L133.201 58.218C132.985 58.542 132.7 58.839 132.346 59.109C131.998 59.379 131.644 59.601 131.284 59.775C131.242 59.727 131.182 59.667 131.104 59.595C131.026 59.523 130.945 59.451 130.861 59.379C130.777 59.301 130.705 59.241 130.645 59.199C130.993 59.055 131.323 58.878 131.635 58.668C131.953 58.458 132.205 58.23 132.391 57.984ZM132.364 57.381V57.678H134.173V57.381H132.364ZM132.364 56.643V56.931H134.173V56.643H132.364ZM131.491 56.184H135.082V58.146H131.491V56.184ZM131.914 54.717L132.724 54.996C132.556 55.368 132.337 55.74 132.067 56.112C131.803 56.478 131.527 56.784 131.239 57.03C131.215 56.964 131.173 56.877 131.113 56.769C131.059 56.661 130.999 56.55 130.933 56.436C130.873 56.322 130.819 56.232 130.771 56.166C130.993 55.986 131.206 55.77 131.41 55.518C131.62 55.26 131.788 54.993 131.914 54.717ZM130.357 56.229L131.185 56.535C131.035 56.799 130.855 57.063 130.645 57.327C130.435 57.585 130.21 57.828 129.97 58.056C129.73 58.284 129.49 58.482 129.25 58.65C129.232 58.578 129.196 58.485 129.142 58.371C129.088 58.251 129.031 58.131 128.971 58.011C128.911 57.891 128.857 57.795 128.809 57.723C129.103 57.543 129.391 57.321 129.673 57.057C129.955 56.793 130.183 56.517 130.357 56.229ZM129.601 57.732L130.222 57.102L130.546 57.192V60.801H129.601V57.732ZM130.276 54.807L131.104 55.077C130.924 55.347 130.702 55.611 130.438 55.869C130.174 56.127 129.91 56.343 129.646 56.517C129.61 56.457 129.553 56.385 129.475 56.301C129.403 56.217 129.328 56.133 129.25 56.049C129.178 55.959 129.112 55.887 129.052 55.833C129.286 55.701 129.514 55.545 129.736 55.365C129.958 55.185 130.138 54.999 130.276 54.807ZM137.611 52.683H144.568V53.655H137.611V52.683ZM137.683 59.685H144.613V60.648H137.683V59.685ZM141.31 58.083H143.848V59.01H141.31V58.083ZM138.178 54.492H140.986V55.311H138.178V54.492ZM136.9 52.683H137.917V55.464C137.917 55.848 137.908 56.271 137.89 56.733C137.872 57.189 137.833 57.66 137.773 58.146C137.719 58.626 137.635 59.094 137.521 59.55C137.407 60.006 137.263 60.42 137.089 60.792C137.023 60.732 136.933 60.669 136.819 60.603C136.711 60.543 136.597 60.483 136.477 60.423C136.363 60.363 136.261 60.318 136.171 60.288C136.339 59.94 136.471 59.562 136.567 59.154C136.669 58.74 136.744 58.317 136.792 57.885C136.84 57.453 136.87 57.03 136.882 56.616C136.894 56.202 136.9 55.818 136.9 55.464V52.683ZM139.168 53.781H140.05V57.462H139.168V53.781ZM140.707 57.309H141.76V60.288H140.707V57.309ZM138.691 57.984H139.699V60.189H138.691V57.984ZM139.168 54.951L139.753 55.149C139.657 55.425 139.534 55.704 139.384 55.986C139.234 56.262 139.069 56.52 138.889 56.76C138.715 56.994 138.532 57.192 138.34 57.354C138.274 57.252 138.181 57.138 138.061 57.012C137.947 56.886 137.842 56.784 137.746 56.706C137.932 56.58 138.115 56.424 138.295 56.238C138.481 56.046 138.649 55.839 138.799 55.617C138.949 55.389 139.072 55.167 139.168 54.951ZM141.202 54.492H144.415V55.311H141.202V54.492ZM142.219 53.781H143.119V57.462H142.219V53.781ZM142.174 54.951L142.768 55.149C142.666 55.413 142.54 55.68 142.39 55.95C142.24 56.214 142.075 56.46 141.895 56.688C141.721 56.91 141.538 57.099 141.346 57.255C141.28 57.153 141.187 57.039 141.067 56.913C140.953 56.787 140.851 56.682 140.761 56.598C140.947 56.484 141.13 56.34 141.31 56.166C141.49 55.986 141.655 55.791 141.805 55.581C141.961 55.371 142.084 55.161 142.174 54.951ZM140.014 55.383C140.062 55.407 140.134 55.449 140.23 55.509C140.326 55.569 140.425 55.635 140.527 55.707C140.635 55.773 140.731 55.836 140.815 55.896C140.905 55.956 140.968 56.001 141.004 56.031L140.491 56.697C140.437 56.631 140.365 56.556 140.275 56.472C140.191 56.388 140.101 56.301 140.005 56.211C139.915 56.121 139.825 56.037 139.735 55.959C139.651 55.881 139.576 55.815 139.51 55.761L140.014 55.383ZM143.173 54.978C143.281 55.188 143.416 55.395 143.578 55.599C143.74 55.803 143.923 55.989 144.127 56.157C144.331 56.325 144.544 56.46 144.766 56.562C144.67 56.64 144.562 56.751 144.442 56.895C144.322 57.033 144.226 57.159 144.154 57.273C143.926 57.129 143.71 56.949 143.506 56.733C143.302 56.511 143.116 56.265 142.948 55.995C142.786 55.719 142.651 55.443 142.543 55.167L143.173 54.978Z" fill="#639CC4"/>
<defs>
<filter id="filter0_i_2231_6931" x="-4" y="-4" width="190" height="83" filterUnits="userSpaceOnUse" color-interpolation-filters="sRGB">
<feFlood flood-opacity="0" result="BackgroundImageFix"/>
<feBlend mode="normal" in="SourceGraphic" in2="BackgroundImageFix" result="shape"/>
<feColorMatrix in="SourceAlpha" type="matrix" values="0 0 0 0 0 0 0 0 0 0 0 0 0 0 0 0 0 0 127 0" result="hardAlpha"/>
<feOffset dx="-7" dy="-7"/>
<feGaussianBlur stdDeviation="2"/>
<feComposite in2="hardAlpha" operator="arithmetic" k2="-1" k3="1"/>
<feColorMatrix type="matrix" values="0 0 0 0 0.48842 0 0 0 0 0.729711 0 0 0 0 0.899038 0 0 0 0.3 0"/>
<feBlend mode="normal" in2="shape" result="effect1_innerShadow_2231_6931"/>
</filter>
</defs>
</svg>